<mxfile host="app.diagrams.net" agent="Mozilla/5.0 (Windows NT 10.0; Win64; x64) AppleWebKit/537.36 (KHTML, like Gecko) Chrome/134.0.0.0 Safari/537.36" version="26.1.3">
  <diagram name="Page-1" id="RAc0YKrUXyeWeJRxJsZo">
    <mxGraphModel grid="1" page="1" gridSize="10" guides="1" tooltips="1" connect="1" arrows="1" fold="1" pageScale="1" pageWidth="850" pageHeight="1100" math="0" shadow="0">
      <root>
        <mxCell id="0" />
        <mxCell id="1" parent="0" />
        <mxCell id="5Tgw-2dPwHMpdobokG_I-1" value="&lt;b&gt;Termék&lt;/b&gt;" style="swimlane;fontStyle=0;childLayout=stackLayout;horizontal=1;startSize=30;horizontalStack=0;resizeParent=1;resizeParentMax=0;resizeLast=0;collapsible=1;marginBottom=0;whiteSpace=wrap;html=1;" vertex="1" parent="1">
          <mxGeometry x="40" y="40" width="180" height="180" as="geometry" />
        </mxCell>
        <mxCell id="5Tgw-2dPwHMpdobokG_I-2" value="PK&lt;span style=&quot;white-space: pre;&quot;&gt;&#x9;&lt;/span&gt;&lt;span style=&quot;white-space: pre;&quot;&gt;&#x9;&lt;/span&gt;&lt;u&gt;Tkód&lt;/u&gt;&lt;span style=&quot;text-decoration-line: underline; white-space: pre;&quot;&gt;&#x9;&lt;/span&gt;&lt;span style=&quot;text-decoration-line: underline; white-space: pre;&quot;&gt;&#x9;&lt;/span&gt;&amp;nbsp; C(8)" style="text;strokeColor=none;fillColor=none;align=left;verticalAlign=middle;spacingLeft=4;spacingRight=4;overflow=hidden;points=[[0,0.5],[1,0.5]];portConstraint=eastwest;rotatable=0;whiteSpace=wrap;html=1;" vertex="1" parent="5Tgw-2dPwHMpdobokG_I-1">
          <mxGeometry y="30" width="180" height="30" as="geometry" />
        </mxCell>
        <mxCell id="5Tgw-2dPwHMpdobokG_I-8" value="" style="endArrow=none;html=1;rounded=0;exitX=0.23;exitY=1;exitDx=0;exitDy=0;exitPerimeter=0;" edge="1" parent="5Tgw-2dPwHMpdobokG_I-1" source="5Tgw-2dPwHMpdobokG_I-6">
          <mxGeometry width="50" height="50" relative="1" as="geometry">
            <mxPoint x="-10" y="80" as="sourcePoint" />
            <mxPoint x="40" y="30" as="targetPoint" />
          </mxGeometry>
        </mxCell>
        <mxCell id="5Tgw-2dPwHMpdobokG_I-9" value="" style="endArrow=none;html=1;rounded=0;exitX=0.23;exitY=1;exitDx=0;exitDy=0;exitPerimeter=0;" edge="1" parent="5Tgw-2dPwHMpdobokG_I-1">
          <mxGeometry width="50" height="50" relative="1" as="geometry">
            <mxPoint x="131" y="180" as="sourcePoint" />
            <mxPoint x="130" y="30" as="targetPoint" />
          </mxGeometry>
        </mxCell>
        <mxCell id="5Tgw-2dPwHMpdobokG_I-4" value="FK&lt;span style=&quot;white-space: pre;&quot;&gt;&#x9;&lt;/span&gt;&lt;span style=&quot;white-space: pre;&quot;&gt;&#x9;&lt;/span&gt;gyártó ID&lt;span style=&quot;white-space: pre;&quot;&gt;&#x9;&lt;/span&gt;&lt;span style=&quot;white-space: pre;&quot;&gt;&#x9;&lt;/span&gt;&amp;nbsp; N" style="text;strokeColor=none;fillColor=none;align=left;verticalAlign=middle;spacingLeft=4;spacingRight=4;overflow=hidden;points=[[0,0.5],[1,0.5]];portConstraint=eastwest;rotatable=0;whiteSpace=wrap;html=1;" vertex="1" parent="5Tgw-2dPwHMpdobokG_I-1">
          <mxGeometry y="60" width="180" height="30" as="geometry" />
        </mxCell>
        <mxCell id="5Tgw-2dPwHMpdobokG_I-3" value="&lt;blockquote style=&quot;margin: 0 0 0 40px; border: none; padding: 0px;&quot;&gt;&amp;nbsp; &amp;nbsp; név&lt;span style=&quot;white-space: pre;&quot;&gt;&#x9;&lt;/span&gt;&lt;span style=&quot;white-space: pre;&quot;&gt;&#x9;&lt;/span&gt;&amp;nbsp; &amp;nbsp; &amp;nbsp;C(20)&lt;/blockquote&gt;" style="text;strokeColor=none;fillColor=none;align=left;verticalAlign=middle;spacingLeft=4;spacingRight=4;overflow=hidden;points=[[0,0.5],[1,0.5]];portConstraint=eastwest;rotatable=0;whiteSpace=wrap;html=1;" vertex="1" parent="5Tgw-2dPwHMpdobokG_I-1">
          <mxGeometry y="90" width="180" height="30" as="geometry" />
        </mxCell>
        <mxCell id="5Tgw-2dPwHMpdobokG_I-7" value="&lt;blockquote style=&quot;margin: 0 0 0 40px; border: none; padding: 0px;&quot;&gt;&amp;nbsp; &amp;nbsp; ear&lt;span style=&quot;white-space: pre;&quot;&gt;&#x9;&lt;/span&gt;&lt;span style=&quot;white-space: pre;&quot;&gt;&#x9;&lt;/span&gt;&amp;nbsp; &amp;nbsp; &amp;nbsp;N&lt;/blockquote&gt;" style="text;strokeColor=none;fillColor=none;align=left;verticalAlign=middle;spacingLeft=4;spacingRight=4;overflow=hidden;points=[[0,0.5],[1,0.5]];portConstraint=eastwest;rotatable=0;whiteSpace=wrap;html=1;" vertex="1" parent="5Tgw-2dPwHMpdobokG_I-1">
          <mxGeometry y="120" width="180" height="30" as="geometry" />
        </mxCell>
        <mxCell id="5Tgw-2dPwHMpdobokG_I-6" value="&lt;span style=&quot;white-space: pre;&quot;&gt;&#x9;&lt;/span&gt;&amp;nbsp; &amp;nbsp; &amp;nbsp; csom. egys&lt;span style=&quot;white-space: pre;&quot;&gt;&#x9;&lt;/span&gt;N" style="text;strokeColor=none;fillColor=none;align=left;verticalAlign=middle;spacingLeft=4;spacingRight=4;overflow=hidden;points=[[0,0.5],[1,0.5]];portConstraint=eastwest;rotatable=0;whiteSpace=wrap;html=1;" vertex="1" parent="5Tgw-2dPwHMpdobokG_I-1">
          <mxGeometry y="150" width="180" height="30" as="geometry" />
        </mxCell>
        <mxCell id="5Tgw-2dPwHMpdobokG_I-10" value="&lt;b&gt;Termék-Alkatrész&lt;/b&gt;" style="swimlane;fontStyle=0;childLayout=stackLayout;horizontal=1;startSize=30;horizontalStack=0;resizeParent=1;resizeParentMax=0;resizeLast=0;collapsible=1;marginBottom=0;whiteSpace=wrap;html=1;" vertex="1" parent="1">
          <mxGeometry x="280" y="40" width="180" height="90" as="geometry" />
        </mxCell>
        <mxCell id="5Tgw-2dPwHMpdobokG_I-14" value="" style="endArrow=none;html=1;rounded=0;exitX=0.226;exitY=1.111;exitDx=0;exitDy=0;exitPerimeter=0;" edge="1" parent="5Tgw-2dPwHMpdobokG_I-10" source="5Tgw-2dPwHMpdobokG_I-12">
          <mxGeometry width="50" height="50" relative="1" as="geometry">
            <mxPoint x="-10" y="80" as="sourcePoint" />
            <mxPoint x="40" y="30" as="targetPoint" />
          </mxGeometry>
        </mxCell>
        <mxCell id="5Tgw-2dPwHMpdobokG_I-11" value="FK&lt;span style=&quot;white-space: pre;&quot;&gt;&#x9;&lt;/span&gt;&lt;span style=&quot;white-space: pre;&quot;&gt;&#x9;&lt;/span&gt;&lt;u&gt;Tkód&lt;/u&gt;&lt;span style=&quot;text-decoration-line: underline; white-space: pre;&quot;&gt;&#x9;&lt;/span&gt;&lt;span style=&quot;text-decoration-line: underline; white-space: pre;&quot;&gt;&#x9;&lt;/span&gt;C(8)" style="text;strokeColor=none;fillColor=none;align=left;verticalAlign=middle;spacingLeft=4;spacingRight=4;overflow=hidden;points=[[0,0.5],[1,0.5]];portConstraint=eastwest;rotatable=0;whiteSpace=wrap;html=1;" vertex="1" parent="5Tgw-2dPwHMpdobokG_I-10">
          <mxGeometry y="30" width="180" height="30" as="geometry" />
        </mxCell>
        <mxCell id="5Tgw-2dPwHMpdobokG_I-15" value="" style="endArrow=none;html=1;rounded=0;exitX=0.726;exitY=1.133;exitDx=0;exitDy=0;exitPerimeter=0;" edge="1" parent="5Tgw-2dPwHMpdobokG_I-10" source="5Tgw-2dPwHMpdobokG_I-12">
          <mxGeometry width="50" height="50" relative="1" as="geometry">
            <mxPoint x="80" y="80" as="sourcePoint" />
            <mxPoint x="130" y="30" as="targetPoint" />
          </mxGeometry>
        </mxCell>
        <mxCell id="5Tgw-2dPwHMpdobokG_I-12" value="FK&lt;span style=&quot;white-space: pre;&quot;&gt;&#x9;&lt;/span&gt;&lt;span style=&quot;white-space: pre;&quot;&gt;&#x9;&lt;/span&gt;Akód&lt;span style=&quot;white-space: pre;&quot;&gt;&#x9;&lt;/span&gt;&lt;span style=&quot;white-space: pre;&quot;&gt;&#x9;&lt;/span&gt;C(6)" style="text;strokeColor=none;fillColor=none;align=left;verticalAlign=middle;spacingLeft=4;spacingRight=4;overflow=hidden;points=[[0,0.5],[1,0.5]];portConstraint=eastwest;rotatable=0;whiteSpace=wrap;html=1;" vertex="1" parent="5Tgw-2dPwHMpdobokG_I-10">
          <mxGeometry y="60" width="180" height="30" as="geometry" />
        </mxCell>
        <mxCell id="5Tgw-2dPwHMpdobokG_I-16" value="" style="endArrow=doubleBlock;startArrow=classic;html=1;rounded=0;entryX=0;entryY=0.5;entryDx=0;entryDy=0;exitX=1;exitY=0.5;exitDx=0;exitDy=0;endFill=1;" edge="1" parent="1" source="5Tgw-2dPwHMpdobokG_I-2" target="5Tgw-2dPwHMpdobokG_I-11">
          <mxGeometry width="50" height="50" relative="1" as="geometry">
            <mxPoint x="380" y="240" as="sourcePoint" />
            <mxPoint x="430" y="190" as="targetPoint" />
          </mxGeometry>
        </mxCell>
        <mxCell id="5Tgw-2dPwHMpdobokG_I-17" value="&lt;b&gt;Alkatrész&lt;/b&gt;" style="swimlane;fontStyle=0;childLayout=stackLayout;horizontal=1;startSize=30;horizontalStack=0;resizeParent=1;resizeParentMax=0;resizeLast=0;collapsible=1;marginBottom=0;whiteSpace=wrap;html=1;" vertex="1" parent="1">
          <mxGeometry x="520" y="40" width="180" height="90" as="geometry" />
        </mxCell>
        <mxCell id="5Tgw-2dPwHMpdobokG_I-18" value="" style="endArrow=none;html=1;rounded=0;exitX=0.226;exitY=1.111;exitDx=0;exitDy=0;exitPerimeter=0;" edge="1" parent="5Tgw-2dPwHMpdobokG_I-17" source="5Tgw-2dPwHMpdobokG_I-21">
          <mxGeometry width="50" height="50" relative="1" as="geometry">
            <mxPoint x="-10" y="80" as="sourcePoint" />
            <mxPoint x="40" y="30" as="targetPoint" />
          </mxGeometry>
        </mxCell>
        <mxCell id="5Tgw-2dPwHMpdobokG_I-19" value="PK&lt;span style=&quot;white-space: pre;&quot;&gt;&#x9;&lt;/span&gt;&lt;span style=&quot;white-space: pre;&quot;&gt;&#x9;&lt;/span&gt;&lt;u&gt;Akód&lt;span style=&quot;white-space: pre;&quot;&gt;&#x9;&lt;/span&gt;&lt;span style=&quot;white-space: pre;&quot;&gt;&#x9;&lt;/span&gt;&lt;/u&gt;C(6)" style="text;strokeColor=none;fillColor=none;align=left;verticalAlign=middle;spacingLeft=4;spacingRight=4;overflow=hidden;points=[[0,0.5],[1,0.5]];portConstraint=eastwest;rotatable=0;whiteSpace=wrap;html=1;" vertex="1" parent="5Tgw-2dPwHMpdobokG_I-17">
          <mxGeometry y="30" width="180" height="30" as="geometry" />
        </mxCell>
        <mxCell id="5Tgw-2dPwHMpdobokG_I-20" value="" style="endArrow=none;html=1;rounded=0;exitX=0.726;exitY=1.133;exitDx=0;exitDy=0;exitPerimeter=0;" edge="1" parent="5Tgw-2dPwHMpdobokG_I-17" source="5Tgw-2dPwHMpdobokG_I-21">
          <mxGeometry width="50" height="50" relative="1" as="geometry">
            <mxPoint x="80" y="80" as="sourcePoint" />
            <mxPoint x="130" y="30" as="targetPoint" />
          </mxGeometry>
        </mxCell>
        <mxCell id="5Tgw-2dPwHMpdobokG_I-21" value="&lt;span style=&quot;white-space: pre;&quot;&gt;&#x9;&lt;/span&gt;&lt;span style=&quot;white-space: pre;&quot;&gt;&#x9;&lt;/span&gt;név&lt;span style=&quot;white-space: pre;&quot;&gt;&#x9;&lt;/span&gt;&lt;span style=&quot;white-space: pre;&quot;&gt;&#x9;&lt;/span&gt;&lt;span style=&quot;white-space: pre;&quot;&gt;&#x9;&lt;/span&gt;C(20)" style="text;strokeColor=none;fillColor=none;align=left;verticalAlign=middle;spacingLeft=4;spacingRight=4;overflow=hidden;points=[[0,0.5],[1,0.5]];portConstraint=eastwest;rotatable=0;whiteSpace=wrap;html=1;" vertex="1" parent="5Tgw-2dPwHMpdobokG_I-17">
          <mxGeometry y="60" width="180" height="30" as="geometry" />
        </mxCell>
        <mxCell id="5Tgw-2dPwHMpdobokG_I-23" value="" style="endArrow=classic;startArrow=doubleBlock;html=1;rounded=0;startFill=1;" edge="1" parent="1">
          <mxGeometry width="50" height="50" relative="1" as="geometry">
            <mxPoint x="460" y="120" as="sourcePoint" />
            <mxPoint x="520" y="80" as="targetPoint" />
            <Array as="points">
              <mxPoint x="490" y="120" />
              <mxPoint x="490" y="80" />
            </Array>
          </mxGeometry>
        </mxCell>
        <mxCell id="5Tgw-2dPwHMpdobokG_I-24" value="&lt;b&gt;Termék-Rendelés&lt;/b&gt;" style="swimlane;fontStyle=0;childLayout=stackLayout;horizontal=1;startSize=30;horizontalStack=0;resizeParent=1;resizeParentMax=0;resizeLast=0;collapsible=1;marginBottom=0;whiteSpace=wrap;html=1;" vertex="1" parent="1">
          <mxGeometry x="280" y="160" width="180" height="90" as="geometry" />
        </mxCell>
        <mxCell id="5Tgw-2dPwHMpdobokG_I-25" value="" style="endArrow=none;html=1;rounded=0;exitX=0.226;exitY=1.111;exitDx=0;exitDy=0;exitPerimeter=0;" edge="1" parent="5Tgw-2dPwHMpdobokG_I-24" source="5Tgw-2dPwHMpdobokG_I-28">
          <mxGeometry width="50" height="50" relative="1" as="geometry">
            <mxPoint x="-10" y="80" as="sourcePoint" />
            <mxPoint x="40" y="30" as="targetPoint" />
          </mxGeometry>
        </mxCell>
        <mxCell id="5Tgw-2dPwHMpdobokG_I-26" value="FK&lt;span style=&quot;white-space: pre;&quot;&gt;&#x9;&lt;/span&gt;&lt;span style=&quot;white-space: pre;&quot;&gt;&#x9;&lt;/span&gt;&lt;u&gt;Tkód&lt;/u&gt;&lt;span style=&quot;text-decoration-line: underline; white-space: pre;&quot;&gt;&#x9;&lt;/span&gt;&lt;span style=&quot;text-decoration-line: underline; white-space: pre;&quot;&gt;&#x9;&lt;/span&gt;C(8)" style="text;strokeColor=none;fillColor=none;align=left;verticalAlign=middle;spacingLeft=4;spacingRight=4;overflow=hidden;points=[[0,0.5],[1,0.5]];portConstraint=eastwest;rotatable=0;whiteSpace=wrap;html=1;" vertex="1" parent="5Tgw-2dPwHMpdobokG_I-24">
          <mxGeometry y="30" width="180" height="30" as="geometry" />
        </mxCell>
        <mxCell id="5Tgw-2dPwHMpdobokG_I-27" value="" style="endArrow=none;html=1;rounded=0;exitX=0.726;exitY=1.133;exitDx=0;exitDy=0;exitPerimeter=0;" edge="1" parent="5Tgw-2dPwHMpdobokG_I-24" source="5Tgw-2dPwHMpdobokG_I-28">
          <mxGeometry width="50" height="50" relative="1" as="geometry">
            <mxPoint x="80" y="80" as="sourcePoint" />
            <mxPoint x="130" y="30" as="targetPoint" />
          </mxGeometry>
        </mxCell>
        <mxCell id="5Tgw-2dPwHMpdobokG_I-28" value="FK&lt;span style=&quot;white-space: pre;&quot;&gt;&#x9;&lt;/span&gt;&lt;span style=&quot;white-space: pre;&quot;&gt;&#x9;&lt;/span&gt;Rkód&lt;span style=&quot;white-space: pre;&quot;&gt;&#x9;&lt;/span&gt;&lt;span style=&quot;white-space: pre;&quot;&gt;&#x9;&lt;/span&gt;C(8)" style="text;strokeColor=none;fillColor=none;align=left;verticalAlign=middle;spacingLeft=4;spacingRight=4;overflow=hidden;points=[[0,0.5],[1,0.5]];portConstraint=eastwest;rotatable=0;whiteSpace=wrap;html=1;" vertex="1" parent="5Tgw-2dPwHMpdobokG_I-24">
          <mxGeometry y="60" width="180" height="30" as="geometry" />
        </mxCell>
        <mxCell id="5Tgw-2dPwHMpdobokG_I-30" value="" style="endArrow=classic;startArrow=doubleBlock;html=1;rounded=0;startFill=1;entryX=0.996;entryY=-0.267;entryDx=0;entryDy=0;entryPerimeter=0;" edge="1" parent="1">
          <mxGeometry width="50" height="50" relative="1" as="geometry">
            <mxPoint x="280.72" y="204" as="sourcePoint" />
            <mxPoint x="219.99999999999997" y="95.99000000000001" as="targetPoint" />
            <Array as="points">
              <mxPoint x="250.72" y="204" />
              <mxPoint x="250.72" y="96" />
            </Array>
          </mxGeometry>
        </mxCell>
        <mxCell id="5Tgw-2dPwHMpdobokG_I-31" value="&lt;b&gt;Rendelés&lt;/b&gt;" style="swimlane;fontStyle=0;childLayout=stackLayout;horizontal=1;startSize=30;horizontalStack=0;resizeParent=1;resizeParentMax=0;resizeLast=0;collapsible=1;marginBottom=0;whiteSpace=wrap;html=1;" vertex="1" parent="1">
          <mxGeometry x="540" y="210" width="200" height="180" as="geometry" />
        </mxCell>
        <mxCell id="5Tgw-2dPwHMpdobokG_I-32" value="PK&lt;span style=&quot;white-space: pre;&quot;&gt;&#x9;&lt;/span&gt;&lt;span style=&quot;white-space: pre;&quot;&gt;&#x9;&lt;/span&gt;&lt;u&gt;Rkód&lt;span style=&quot;white-space: pre;&quot;&gt;&#x9;&lt;/span&gt;&lt;/u&gt;&lt;span style=&quot;text-decoration-line: underline; white-space: pre;&quot;&gt;&#x9;&lt;/span&gt;&amp;nbsp; C(8)" style="text;strokeColor=none;fillColor=none;align=left;verticalAlign=middle;spacingLeft=4;spacingRight=4;overflow=hidden;points=[[0,0.5],[1,0.5]];portConstraint=eastwest;rotatable=0;whiteSpace=wrap;html=1;" vertex="1" parent="5Tgw-2dPwHMpdobokG_I-31">
          <mxGeometry y="30" width="200" height="30" as="geometry" />
        </mxCell>
        <mxCell id="5Tgw-2dPwHMpdobokG_I-33" value="" style="endArrow=none;html=1;rounded=0;exitX=0.23;exitY=1;exitDx=0;exitDy=0;exitPerimeter=0;" edge="1" parent="5Tgw-2dPwHMpdobokG_I-31" source="5Tgw-2dPwHMpdobokG_I-38">
          <mxGeometry width="50" height="50" relative="1" as="geometry">
            <mxPoint x="-10" y="80" as="sourcePoint" />
            <mxPoint x="40" y="30" as="targetPoint" />
          </mxGeometry>
        </mxCell>
        <mxCell id="5Tgw-2dPwHMpdobokG_I-34" value="" style="endArrow=none;html=1;rounded=0;exitX=0.23;exitY=1;exitDx=0;exitDy=0;exitPerimeter=0;" edge="1" parent="5Tgw-2dPwHMpdobokG_I-31">
          <mxGeometry width="50" height="50" relative="1" as="geometry">
            <mxPoint x="131" y="180" as="sourcePoint" />
            <mxPoint x="130" y="30" as="targetPoint" />
          </mxGeometry>
        </mxCell>
        <mxCell id="5Tgw-2dPwHMpdobokG_I-35" value="FK&lt;span style=&quot;white-space: pre;&quot;&gt;&#x9;&lt;/span&gt;&lt;span style=&quot;white-space: pre;&quot;&gt;&#x9;&lt;/span&gt;Vevő kód&lt;span style=&quot;white-space: pre;&quot;&gt;&#x9;&lt;/span&gt;&lt;span style=&quot;white-space: pre;&quot;&gt;&#x9;&lt;/span&gt;&amp;nbsp; C(10)" style="text;strokeColor=none;fillColor=none;align=left;verticalAlign=middle;spacingLeft=4;spacingRight=4;overflow=hidden;points=[[0,0.5],[1,0.5]];portConstraint=eastwest;rotatable=0;whiteSpace=wrap;html=1;" vertex="1" parent="5Tgw-2dPwHMpdobokG_I-31">
          <mxGeometry y="60" width="200" height="30" as="geometry" />
        </mxCell>
        <mxCell id="5Tgw-2dPwHMpdobokG_I-36" value="&lt;blockquote style=&quot;margin: 0 0 0 40px; border: none; padding: 0px;&quot;&gt;&amp;nbsp; &amp;nbsp; dátum&lt;span style=&quot;white-space: pre;&quot;&gt;&#x9;&lt;/span&gt;&lt;span style=&quot;white-space: pre;&quot;&gt;&#x9;&lt;/span&gt;&amp;nbsp; &amp;nbsp; &amp;nbsp;D&lt;/blockquote&gt;" style="text;strokeColor=none;fillColor=none;align=left;verticalAlign=middle;spacingLeft=4;spacingRight=4;overflow=hidden;points=[[0,0.5],[1,0.5]];portConstraint=eastwest;rotatable=0;whiteSpace=wrap;html=1;" vertex="1" parent="5Tgw-2dPwHMpdobokG_I-31">
          <mxGeometry y="90" width="200" height="30" as="geometry" />
        </mxCell>
        <mxCell id="5Tgw-2dPwHMpdobokG_I-37" value="&lt;blockquote style=&quot;margin: 0 0 0 40px; border: none; padding: 0px;&quot;&gt;&amp;nbsp; &amp;nbsp;darabszám&lt;span style=&quot;white-space: pre;&quot;&gt;&#x9;&amp;nbsp;&lt;/span&gt;&amp;nbsp; &amp;nbsp; &amp;nbsp;N&lt;/blockquote&gt;" style="text;strokeColor=none;fillColor=none;align=left;verticalAlign=middle;spacingLeft=4;spacingRight=4;overflow=hidden;points=[[0,0.5],[1,0.5]];portConstraint=eastwest;rotatable=0;whiteSpace=wrap;html=1;" vertex="1" parent="5Tgw-2dPwHMpdobokG_I-31">
          <mxGeometry y="120" width="200" height="30" as="geometry" />
        </mxCell>
        <mxCell id="5Tgw-2dPwHMpdobokG_I-38" value="&lt;span style=&quot;white-space: pre;&quot;&gt;&#x9;&lt;/span&gt;&amp;nbsp; &amp;nbsp; &amp;nbsp; ár&lt;span style=&quot;white-space: pre;&quot;&gt;&#x9;&lt;/span&gt;&lt;span style=&quot;white-space: pre;&quot;&gt;&#x9;&lt;/span&gt;&amp;nbsp; &amp;nbsp; &amp;nbsp; &amp;nbsp; &amp;nbsp; N" style="text;strokeColor=none;fillColor=none;align=left;verticalAlign=middle;spacingLeft=4;spacingRight=4;overflow=hidden;points=[[0,0.5],[1,0.5]];portConstraint=eastwest;rotatable=0;whiteSpace=wrap;html=1;" vertex="1" parent="5Tgw-2dPwHMpdobokG_I-31">
          <mxGeometry y="150" width="200" height="30" as="geometry" />
        </mxCell>
        <mxCell id="5Tgw-2dPwHMpdobokG_I-39" value="" style="endArrow=classic;startArrow=doubleBlock;html=1;rounded=0;startFill=1;entryX=0;entryY=0.178;entryDx=0;entryDy=0;entryPerimeter=0;" edge="1" parent="1" target="5Tgw-2dPwHMpdobokG_I-32">
          <mxGeometry width="50" height="50" relative="1" as="geometry">
            <mxPoint x="460" y="230" as="sourcePoint" />
            <mxPoint x="540" y="250" as="targetPoint" />
            <Array as="points">
              <mxPoint x="500" y="230" />
              <mxPoint x="500" y="245" />
            </Array>
          </mxGeometry>
        </mxCell>
        <mxCell id="5Tgw-2dPwHMpdobokG_I-40" value="&lt;b&gt;Vevő&lt;/b&gt;" style="swimlane;fontStyle=0;childLayout=stackLayout;horizontal=1;startSize=30;horizontalStack=0;resizeParent=1;resizeParentMax=0;resizeLast=0;collapsible=1;marginBottom=0;whiteSpace=wrap;html=1;" vertex="1" parent="1">
          <mxGeometry x="840" y="210" width="180" height="180" as="geometry" />
        </mxCell>
        <mxCell id="5Tgw-2dPwHMpdobokG_I-41" value="PK&lt;span style=&quot;white-space: pre;&quot;&gt;&#x9;&lt;/span&gt;&lt;span style=&quot;white-space: pre;&quot;&gt;&#x9;&lt;/span&gt;&lt;u&gt;Vkód&lt;/u&gt;&lt;span style=&quot;text-decoration-line: underline; white-space: pre;&quot;&gt;&#x9;&lt;/span&gt;&lt;span style=&quot;text-decoration-line: underline; white-space: pre;&quot;&gt;&#x9;&lt;/span&gt;&amp;nbsp; C(8)" style="text;strokeColor=none;fillColor=none;align=left;verticalAlign=middle;spacingLeft=4;spacingRight=4;overflow=hidden;points=[[0,0.5],[1,0.5]];portConstraint=eastwest;rotatable=0;whiteSpace=wrap;html=1;" vertex="1" parent="5Tgw-2dPwHMpdobokG_I-40">
          <mxGeometry y="30" width="180" height="30" as="geometry" />
        </mxCell>
        <mxCell id="5Tgw-2dPwHMpdobokG_I-42" value="" style="endArrow=none;html=1;rounded=0;exitX=0.23;exitY=1;exitDx=0;exitDy=0;exitPerimeter=0;" edge="1" parent="5Tgw-2dPwHMpdobokG_I-40" source="5Tgw-2dPwHMpdobokG_I-47">
          <mxGeometry width="50" height="50" relative="1" as="geometry">
            <mxPoint x="-10" y="80" as="sourcePoint" />
            <mxPoint x="40" y="30" as="targetPoint" />
          </mxGeometry>
        </mxCell>
        <mxCell id="5Tgw-2dPwHMpdobokG_I-43" value="" style="endArrow=none;html=1;rounded=0;exitX=0.23;exitY=1;exitDx=0;exitDy=0;exitPerimeter=0;" edge="1" parent="5Tgw-2dPwHMpdobokG_I-40">
          <mxGeometry width="50" height="50" relative="1" as="geometry">
            <mxPoint x="131" y="180" as="sourcePoint" />
            <mxPoint x="130" y="30" as="targetPoint" />
          </mxGeometry>
        </mxCell>
        <mxCell id="5Tgw-2dPwHMpdobokG_I-44" value="&lt;span style=&quot;white-space: pre;&quot;&gt;&#x9;&lt;/span&gt;&lt;span style=&quot;white-space: pre;&quot;&gt;&#x9;&lt;/span&gt;név&lt;span style=&quot;white-space: pre;&quot;&gt;&#x9;&lt;/span&gt;&amp;nbsp; &amp;nbsp; &amp;nbsp; &amp;nbsp; &amp;nbsp; &amp;nbsp; &amp;nbsp; &amp;nbsp;&amp;nbsp; C(20)" style="text;strokeColor=none;fillColor=none;align=left;verticalAlign=middle;spacingLeft=4;spacingRight=4;overflow=hidden;points=[[0,0.5],[1,0.5]];portConstraint=eastwest;rotatable=0;whiteSpace=wrap;html=1;" vertex="1" parent="5Tgw-2dPwHMpdobokG_I-40">
          <mxGeometry y="60" width="180" height="30" as="geometry" />
        </mxCell>
        <mxCell id="5Tgw-2dPwHMpdobokG_I-45" value="&lt;blockquote style=&quot;margin: 0 0 0 40px; border: none; padding: 0px;&quot;&gt;&amp;nbsp; &amp;nbsp;ir. szám&lt;span style=&quot;white-space: pre;&quot;&gt;&#x9;&lt;/span&gt;&lt;span style=&quot;white-space: pre;&quot;&gt;&#x9;&lt;/span&gt;&amp;nbsp; &amp;nbsp; &amp;nbsp; N&lt;/blockquote&gt;" style="text;strokeColor=none;fillColor=none;align=left;verticalAlign=middle;spacingLeft=4;spacingRight=4;overflow=hidden;points=[[0,0.5],[1,0.5]];portConstraint=eastwest;rotatable=0;whiteSpace=wrap;html=1;" vertex="1" parent="5Tgw-2dPwHMpdobokG_I-40">
          <mxGeometry y="90" width="180" height="30" as="geometry" />
        </mxCell>
        <mxCell id="5Tgw-2dPwHMpdobokG_I-46" value="&lt;blockquote style=&quot;margin: 0 0 0 40px; border: none; padding: 0px;&quot;&gt;&amp;nbsp; &amp;nbsp;város&lt;span style=&quot;white-space: pre;&quot;&gt;&#x9;&lt;/span&gt;&lt;span style=&quot;white-space: pre;&quot;&gt;&#x9;&lt;/span&gt;&amp;nbsp; &amp;nbsp; &amp;nbsp;C(20)&lt;/blockquote&gt;" style="text;strokeColor=none;fillColor=none;align=left;verticalAlign=middle;spacingLeft=4;spacingRight=4;overflow=hidden;points=[[0,0.5],[1,0.5]];portConstraint=eastwest;rotatable=0;whiteSpace=wrap;html=1;" vertex="1" parent="5Tgw-2dPwHMpdobokG_I-40">
          <mxGeometry y="120" width="180" height="30" as="geometry" />
        </mxCell>
        <mxCell id="5Tgw-2dPwHMpdobokG_I-47" value="&lt;span style=&quot;white-space: pre;&quot;&gt;&#x9;&lt;/span&gt;&amp;nbsp; &amp;nbsp; &amp;nbsp; utca&lt;span style=&quot;white-space: pre;&quot;&gt;&#x9;&lt;/span&gt;&lt;span style=&quot;white-space: pre;&quot;&gt;&#x9;&lt;/span&gt;&lt;span style=&quot;white-space: pre;&quot;&gt;&#x9;&lt;/span&gt;C(20)" style="text;strokeColor=none;fillColor=none;align=left;verticalAlign=middle;spacingLeft=4;spacingRight=4;overflow=hidden;points=[[0,0.5],[1,0.5]];portConstraint=eastwest;rotatable=0;whiteSpace=wrap;html=1;" vertex="1" parent="5Tgw-2dPwHMpdobokG_I-40">
          <mxGeometry y="150" width="180" height="30" as="geometry" />
        </mxCell>
        <mxCell id="5Tgw-2dPwHMpdobokG_I-48" value="" style="endArrow=classic;startArrow=doubleBlock;html=1;rounded=0;startFill=1;" edge="1" parent="1">
          <mxGeometry width="50" height="50" relative="1" as="geometry">
            <mxPoint x="740" y="280" as="sourcePoint" />
            <mxPoint x="840" y="250" as="targetPoint" />
            <Array as="points">
              <mxPoint x="790" y="280" />
              <mxPoint x="790" y="251" />
            </Array>
          </mxGeometry>
        </mxCell>
        <mxCell id="5Tgw-2dPwHMpdobokG_I-49" value="&lt;b&gt;Gyártó&lt;/b&gt;" style="swimlane;fontStyle=0;childLayout=stackLayout;horizontal=1;startSize=30;horizontalStack=0;resizeParent=1;resizeParentMax=0;resizeLast=0;collapsible=1;marginBottom=0;whiteSpace=wrap;html=1;" vertex="1" parent="1">
          <mxGeometry x="40" y="280" width="180" height="210" as="geometry" />
        </mxCell>
        <mxCell id="5Tgw-2dPwHMpdobokG_I-50" value="PK&lt;span style=&quot;white-space: pre;&quot;&gt;&#x9;&lt;/span&gt;&lt;span style=&quot;white-space: pre;&quot;&gt;&#x9;&lt;/span&gt;&lt;u&gt;Adószám&lt;/u&gt;&lt;span style=&quot;text-decoration-line: underline; white-space: pre;&quot;&gt;&#x9;&lt;/span&gt;&lt;span style=&quot;text-decoration-line: underline; white-space: pre;&quot;&gt;&#x9;&lt;/span&gt;&amp;nbsp; N" style="text;strokeColor=none;fillColor=none;align=left;verticalAlign=middle;spacingLeft=4;spacingRight=4;overflow=hidden;points=[[0,0.5],[1,0.5]];portConstraint=eastwest;rotatable=0;whiteSpace=wrap;html=1;" vertex="1" parent="5Tgw-2dPwHMpdobokG_I-49">
          <mxGeometry y="30" width="180" height="30" as="geometry" />
        </mxCell>
        <mxCell id="5Tgw-2dPwHMpdobokG_I-51" value="" style="endArrow=none;html=1;rounded=0;exitX=0.23;exitY=1;exitDx=0;exitDy=0;exitPerimeter=0;" edge="1" parent="5Tgw-2dPwHMpdobokG_I-49" source="5Tgw-2dPwHMpdobokG_I-56">
          <mxGeometry width="50" height="50" relative="1" as="geometry">
            <mxPoint x="-10" y="80" as="sourcePoint" />
            <mxPoint x="40" y="30" as="targetPoint" />
          </mxGeometry>
        </mxCell>
        <mxCell id="5Tgw-2dPwHMpdobokG_I-52" value="" style="endArrow=none;html=1;rounded=0;exitX=0.23;exitY=1;exitDx=0;exitDy=0;exitPerimeter=0;" edge="1" parent="5Tgw-2dPwHMpdobokG_I-49">
          <mxGeometry width="50" height="50" relative="1" as="geometry">
            <mxPoint x="131" y="180" as="sourcePoint" />
            <mxPoint x="130" y="30" as="targetPoint" />
          </mxGeometry>
        </mxCell>
        <mxCell id="5Tgw-2dPwHMpdobokG_I-53" value="&lt;span style=&quot;white-space: pre;&quot;&gt;&#x9;&lt;/span&gt;&lt;span style=&quot;white-space: pre;&quot;&gt;&#x9;&lt;/span&gt;név&amp;nbsp;&lt;span style=&quot;white-space: pre;&quot;&gt;&#x9;&lt;/span&gt;&lt;span style=&quot;white-space: pre;&quot;&gt;&#x9;&lt;/span&gt;&amp;nbsp; &amp;nbsp; &amp;nbsp; &amp;nbsp; C(20)" style="text;strokeColor=none;fillColor=none;align=left;verticalAlign=middle;spacingLeft=4;spacingRight=4;overflow=hidden;points=[[0,0.5],[1,0.5]];portConstraint=eastwest;rotatable=0;whiteSpace=wrap;html=1;" vertex="1" parent="5Tgw-2dPwHMpdobokG_I-49">
          <mxGeometry y="60" width="180" height="30" as="geometry" />
        </mxCell>
        <mxCell id="5Tgw-2dPwHMpdobokG_I-54" value="&lt;blockquote style=&quot;margin: 0 0 0 40px; border: none; padding: 0px;&quot;&gt;&amp;nbsp; &amp;nbsp; telephely&lt;span style=&quot;white-space: pre;&quot;&gt;&#x9;&lt;/span&gt;&amp;nbsp; &amp;nbsp; &amp;nbsp;C(30)&lt;/blockquote&gt;" style="text;strokeColor=none;fillColor=none;align=left;verticalAlign=middle;spacingLeft=4;spacingRight=4;overflow=hidden;points=[[0,0.5],[1,0.5]];portConstraint=eastwest;rotatable=0;whiteSpace=wrap;html=1;" vertex="1" parent="5Tgw-2dPwHMpdobokG_I-49">
          <mxGeometry y="90" width="180" height="30" as="geometry" />
        </mxCell>
        <mxCell id="5Tgw-2dPwHMpdobokG_I-55" value="&lt;blockquote style=&quot;margin: 0 0 0 40px; border: none; padding: 0px;&quot;&gt;&amp;nbsp; &amp;nbsp; ir.szám&lt;span style=&quot;white-space: pre;&quot;&gt;&#x9;&lt;/span&gt;&lt;span style=&quot;white-space: pre;&quot;&gt;&#x9;&lt;/span&gt;&amp;nbsp; &amp;nbsp; &amp;nbsp;N&lt;/blockquote&gt;" style="text;strokeColor=none;fillColor=none;align=left;verticalAlign=middle;spacingLeft=4;spacingRight=4;overflow=hidden;points=[[0,0.5],[1,0.5]];portConstraint=eastwest;rotatable=0;whiteSpace=wrap;html=1;" vertex="1" parent="5Tgw-2dPwHMpdobokG_I-49">
          <mxGeometry y="120" width="180" height="30" as="geometry" />
        </mxCell>
        <mxCell id="5Tgw-2dPwHMpdobokG_I-57" value="&lt;blockquote style=&quot;margin: 0 0 0 40px; border: none; padding: 0px;&quot;&gt;&amp;nbsp; &amp;nbsp; város&lt;span style=&quot;white-space: pre;&quot;&gt;&#x9;&lt;/span&gt;&lt;span style=&quot;white-space: pre;&quot;&gt;&#x9;&lt;/span&gt;&amp;nbsp; &amp;nbsp; &amp;nbsp;C(20)&lt;/blockquote&gt;" style="text;strokeColor=none;fillColor=none;align=left;verticalAlign=middle;spacingLeft=4;spacingRight=4;overflow=hidden;points=[[0,0.5],[1,0.5]];portConstraint=eastwest;rotatable=0;whiteSpace=wrap;html=1;" vertex="1" parent="5Tgw-2dPwHMpdobokG_I-49">
          <mxGeometry y="150" width="180" height="30" as="geometry" />
        </mxCell>
        <mxCell id="5Tgw-2dPwHMpdobokG_I-56" value="&lt;span style=&quot;white-space: pre;&quot;&gt;&#x9;&lt;/span&gt;&amp;nbsp; &amp;nbsp; &amp;nbsp; &amp;nbsp; utca&lt;span style=&quot;white-space: pre;&quot;&gt;&#x9;&lt;/span&gt;&lt;span style=&quot;white-space: pre;&quot;&gt;&#x9;&lt;/span&gt;&lt;span style=&quot;white-space: pre;&quot;&gt;&#x9;&lt;/span&gt;C(20)" style="text;strokeColor=none;fillColor=none;align=left;verticalAlign=middle;spacingLeft=4;spacingRight=4;overflow=hidden;points=[[0,0.5],[1,0.5]];portConstraint=eastwest;rotatable=0;whiteSpace=wrap;html=1;" vertex="1" parent="5Tgw-2dPwHMpdobokG_I-49">
          <mxGeometry y="180" width="180" height="30" as="geometry" />
        </mxCell>
        <mxCell id="5Tgw-2dPwHMpdobokG_I-58" value="" style="endArrow=none;html=1;rounded=0;exitX=0.739;exitY=0.973;exitDx=0;exitDy=0;exitPerimeter=0;entryX=0.72;entryY=0.056;entryDx=0;entryDy=0;entryPerimeter=0;" edge="1" parent="5Tgw-2dPwHMpdobokG_I-49" source="5Tgw-2dPwHMpdobokG_I-56" target="5Tgw-2dPwHMpdobokG_I-50">
          <mxGeometry width="50" height="50" relative="1" as="geometry">
            <mxPoint x="120" y="140" as="sourcePoint" />
            <mxPoint x="170" y="90" as="targetPoint" />
          </mxGeometry>
        </mxCell>
        <mxCell id="5Tgw-2dPwHMpdobokG_I-59" value="" style="endArrow=doubleBlock;startArrow=block;html=1;rounded=0;startFill=1;entryX=0;entryY=0.5;entryDx=0;entryDy=0;endFill=1;" edge="1" parent="1" target="5Tgw-2dPwHMpdobokG_I-4">
          <mxGeometry width="50" height="50" relative="1" as="geometry">
            <mxPoint x="40.00000000000003" y="328.01" as="sourcePoint" />
            <mxPoint x="-20.720000000000027" y="220" as="targetPoint" />
            <Array as="points">
              <mxPoint y="328" />
              <mxPoint y="115" />
            </Array>
          </mxGeometry>
        </mxCell>
      </root>
    </mxGraphModel>
  </diagram>
</mxfile>
